<svg width="60" height="60" viewBox="0 0 60 60" fill="none" xmlns="http://www.w3.org/2000/svg">
<g filter="url(#filter0_d_42_2)">
<circle cx="30" cy="26" r="26" fill="white"/>
</g>
<path d="M40.6066 30.3934C38.9729 28.7596 37.0283 27.5502 34.9066 26.8181C37.179 25.253 38.6719 22.6337 38.6719 19.6719C38.6719 14.8902 34.7817 11 30 11C25.2183 11 21.3281 14.8902 21.3281 19.6719C21.3281 22.6337 22.821 25.253 25.0935 26.8181C22.9718 27.5502 21.0272 28.7596 19.3934 30.3934C16.5603 33.2265 15 36.9934 15 41H17.3438C17.3438 34.0213 23.0213 28.3438 30 28.3438C36.9787 28.3438 42.6562 34.0213 42.6562 41H45C45 36.9934 43.4397 33.2265 40.6066 30.3934ZM30 26C26.5107 26 23.6719 23.1613 23.6719 19.6719C23.6719 16.1825 26.5107 13.3438 30 13.3438C33.4893 13.3438 36.3281 16.1825 36.3281 19.6719C36.3281 23.1613 33.4893 26 30 26Z" fill="#2E266F"/>
<g filter="url(#filter1_d_42_2)">
<circle cx="47.5" cy="7.5" r="7.5" fill="#31A24C"/>
</g>
<defs>
<filter id="filter0_d_42_2" x="0" y="0" width="60" height="60" filterUnits="userSpaceOnUse" color-interpolation-filters="sRGB">
<feFlood flood-opacity="0" result="BackgroundImageFix"/>
<feColorMatrix in="SourceAlpha" type="matrix" values="0 0 0 0 0 0 0 0 0 0 0 0 0 0 0 0 0 0 127 0" result="hardAlpha"/>
<feOffset dy="4"/>
<feGaussianBlur stdDeviation="2"/>
<feComposite in2="hardAlpha" operator="out"/>
<feColorMatrix type="matrix" values="0 0 0 0 0 0 0 0 0 0 0 0 0 0 0 0 0 0 0.25 0"/>
<feBlend mode="normal" in2="BackgroundImageFix" result="effect1_dropShadow_42_2"/>
<feBlend mode="normal" in="SourceGraphic" in2="effect1_dropShadow_42_2" result="shape"/>
</filter>
<filter id="filter1_d_42_2" x="36" y="0" width="23" height="23" filterUnits="userSpaceOnUse" color-interpolation-filters="sRGB">
<feFlood flood-opacity="0" result="BackgroundImageFix"/>
<feColorMatrix in="SourceAlpha" type="matrix" values="0 0 0 0 0 0 0 0 0 0 0 0 0 0 0 0 0 0 127 0" result="hardAlpha"/>
<feOffset dy="4"/>
<feGaussianBlur stdDeviation="2"/>
<feComposite in2="hardAlpha" operator="out"/>
<feColorMatrix type="matrix" values="0 0 0 0 0 0 0 0 0 0 0 0 0 0 0 0 0 0 0.25 0"/>
<feBlend mode="normal" in2="BackgroundImageFix" result="effect1_dropShadow_42_2"/>
<feBlend mode="normal" in="SourceGraphic" in2="effect1_dropShadow_42_2" result="shape"/>
</filter>
</defs>
</svg>
